<svg xmlns="http://www.w3.org/2000/svg" width="1480" height="980" viewBox="0 0 1480 980"><defs>
 <marker id="ah" markerWidth="9" markerHeight="8" refX="8" refY="3" orient="auto" markerUnits="strokeWidth">
   <path d="M0,0 L8,3 L0,6 Z" fill="#5A6B7B"/></marker>
</defs><g font-family="Helvetica, Arial, sans-serif"><rect x="0" y="0" width="1480" height="980" rx="0" ry="0" fill="#FFFFFF" stroke="none" stroke-width="0" fill-opacity="1"/><text x="740" y="34" font-size="20" fill="#0B2545" font-weight="bold" text-anchor="middle" >Open Endpoint Management — Detailed Architecture &amp; Data Flow</text><text x="740" y="54" font-size="11.5" fill="#5A6B7B" font-weight="normal" text-anchor="middle" >Assemble-first: Tactical RMM (remediation) + FleetDM (compliance) · agents phone home outbound 443 · control planes managed via AWS SSM</text><rect x="24" y="70" width="320" height="592" rx="14" ry="14" fill="#F2F5F8" stroke="#1B6CA8" stroke-width="2" fill-opacity="0.6"/><rect x="24" y="70" width="320" height="26" rx="14" fill="#1B6CA8"/><rect x="24" y="83" width="320" height="13" fill="#1B6CA8"/><text x="38" y="88" font-size="13" fill="#FFFFFF" font-weight="bold" text-anchor="start" >WINDOWS 10/11 ENDPOINT  (agents run as SYSTEM)</text><rect x="44" y="108" width="280" height="86" rx="8" ry="8" fill="#FFFFFF" stroke="#1B6CA8" stroke-width="1.6" fill-opacity="1"/><rect x="44" y="108" width="280" height="5" rx="2" fill="#1B6CA8"/><text x="184.0" y="130" font-size="12.5" fill="#0B2545" font-weight="bold" text-anchor="middle" >Tactical RMM Agent</text><text x="184.0" y="148" font-size="10" fill="#5A6B7B" font-weight="normal" text-anchor="middle" >Go service · check-in, run scripts,</text><text x="184.0" y="163" font-size="10" fill="#5A6B7B" font-weight="normal" text-anchor="middle" >apply patches, install software</text><rect x="44" y="206" width="280" height="58" rx="8" ry="8" fill="#FFFFFF" stroke="#6C4AB6" stroke-width="1.6" fill-opacity="1"/><rect x="44" y="206" width="280" height="5" rx="2" fill="#6C4AB6"/><text x="184.0" y="228" font-size="12.5" fill="#0B2545" font-weight="bold" text-anchor="middle" >Mesh Agent (MeshCentral)</text><text x="184.0" y="246" font-size="10" fill="#5A6B7B" font-weight="normal" text-anchor="middle" >remote desktop / shell</text><rect x="44" y="276" width="280" height="86" rx="8" ry="8" fill="#FFFFFF" stroke="#13A89E" stroke-width="1.6" fill-opacity="1"/><rect x="44" y="276" width="280" height="5" rx="2" fill="#13A89E"/><text x="184.0" y="298" font-size="12.5" fill="#0B2545" font-weight="bold" text-anchor="middle" >fleetd  =  orbit + osquery + Desktop</text><text x="184.0" y="316" font-size="10" fill="#5A6B7B" font-weight="normal" text-anchor="middle" >osquery runs read-only SQL</text><text x="184.0" y="331" font-size="10" fill="#5A6B7B" font-weight="normal" text-anchor="middle" >over the OS (no changes)</text><rect x="44" y="452" width="280" height="196" rx="8" ry="8" fill="#FFFFFF" stroke="#5A6B7B" stroke-width="1.6" fill-opacity="1"/><rect x="44" y="452" width="280" height="5" rx="2" fill="#5A6B7B"/><text x="184.0" y="474" font-size="12.5" fill="#0B2545" font-weight="bold" text-anchor="middle" >Windows OS surfaces</text><text x="184.0" y="492" font-size="10" fill="#5A6B7B" font-weight="normal" text-anchor="middle" >Windows Update Agent API  (patches)</text><text x="184.0" y="507" font-size="10" fill="#5A6B7B" font-weight="normal" text-anchor="middle" >Chocolatey  (3rd-party apps)</text><text x="184.0" y="522" font-size="10" fill="#5A6B7B" font-weight="normal" text-anchor="middle" >WMI · Registry · Services</text><text x="184.0" y="537" font-size="10" fill="#5A6B7B" font-weight="normal" text-anchor="middle" >BitLocker · Defender · Firewall</text><text x="184.0" y="552" font-size="10" fill="#5A6B7B" font-weight="normal" text-anchor="middle" >osquery tables: bitlocker_info,</text><text x="184.0" y="567" font-size="10" fill="#5A6B7B" font-weight="normal" text-anchor="middle" >windows_security_center, registry,</text><text x="184.0" y="582" font-size="10" fill="#5A6B7B" font-weight="normal" text-anchor="middle" >programs, logical_drives, os_version</text><line x1="150" y1="194" x2="150" y2="452" stroke="#5A6B7B" stroke-width="1.5" marker-end="url(#ah)"/><rect x="136.25" y="307.0" width="27.500000000000004" height="18" rx="3" ry="3" fill="#FFFFFF" stroke="none" stroke-width="0" fill-opacity="1"/><text x="150.0" y="319.0" font-size="10" fill="#5A6B7B" font-weight="bold" text-anchor="middle" >apply</text><line x1="230" y1="362" x2="230" y2="452" stroke="#13A89E" stroke-width="1.5" marker-end="url(#ah)" stroke-dasharray="5 4"/><rect x="219.0" y="391.0" width="22.0" height="18" rx="3" ry="3" fill="#FFFFFF" stroke="none" stroke-width="0" fill-opacity="1"/><text x="230.0" y="403.0" font-size="10" fill="#13A89E" font-weight="bold" text-anchor="middle" >read</text><rect x="356" y="70" width="150" height="592" rx="14" ry="14" fill="#F2F5F8" stroke="#C8841F" stroke-width="2" fill-opacity="0.6"/><rect x="356" y="70" width="150" height="26" rx="14" fill="#C8841F"/><rect x="356" y="83" width="150" height="13" fill="#C8841F"/><text x="370" y="88" font-size="13" fill="#FFFFFF" font-weight="bold" text-anchor="start" >INTERNET · DNS · TLS</text><rect x="366" y="108" width="130" height="96" rx="8" ry="8" fill="#FFFFFF" stroke="#C8841F" stroke-width="1.6" fill-opacity="1"/><rect x="366" y="108" width="130" height="5" rx="2" fill="#C8841F"/><text x="431.0" y="130" font-size="12" fill="#0B2545" font-weight="bold" text-anchor="middle" >DuckDNS</text><text x="431.0" y="148" font-size="10" fill="#5A6B7B" font-weight="normal" text-anchor="middle" >nbcepm.duckdns.org</text><text x="431.0" y="163" font-size="10" fill="#5A6B7B" font-weight="normal" text-anchor="middle" >+ *.nbcepm (rmm/</text><text x="431.0" y="178" font-size="10" fill="#5A6B7B" font-weight="normal" text-anchor="middle" >api/mesh)</text><text x="431.0" y="193" font-size="10" fill="#5A6B7B" font-weight="normal" text-anchor="middle" >nbcfleet.duckdns.org</text><rect x="366" y="220" width="130" height="74" rx="8" ry="8" fill="#FFFFFF" stroke="#C8841F" stroke-width="1.6" fill-opacity="1"/><rect x="366" y="220" width="130" height="5" rx="2" fill="#C8841F"/><text x="431.0" y="242" font-size="12" fill="#0B2545" font-weight="bold" text-anchor="middle" >Let&#x27;s Encrypt</text><text x="431.0" y="260" font-size="10" fill="#5A6B7B" font-weight="normal" text-anchor="middle" >TLS certs via</text><text x="431.0" y="275" font-size="10" fill="#5A6B7B" font-weight="normal" text-anchor="middle" >HTTP-01 (:80)</text><text x="431" y="330" font-size="10.5" fill="#5A6B7B" font-weight="bold" text-anchor="middle" >Agents:</text><text x="431" y="346" font-size="9.5" fill="#5A6B7B" font-weight="normal" text-anchor="middle" >outbound 443 only.</text><text x="431" y="360" font-size="9.5" fill="#5A6B7B" font-weight="normal" text-anchor="middle" >No inbound to the</text><text x="431" y="374" font-size="9.5" fill="#5A6B7B" font-weight="normal" text-anchor="middle" >endpoint (no VPN).</text><rect x="518" y="70" width="938" height="592" rx="14" ry="14" fill="#F2F5F8" stroke="#0B2545" stroke-width="2" fill-opacity="0.6"/><rect x="518" y="70" width="938" height="26" rx="14" fill="#0B2545"/><rect x="518" y="83" width="938" height="13" fill="#0B2545"/><text x="532" y="88" font-size="13" fill="#FFFFFF" font-weight="bold" text-anchor="start" >AWS · us-west-2 · default VPC / public subnet / Internet Gateway</text><rect x="538" y="104" width="900" height="176" rx="10" ry="10" fill="#FFFFFF" stroke="#13A89E" stroke-width="2" fill-opacity="1"/><text x="552" y="124" font-size="12.5" fill="#13A89E" font-weight="bold" text-anchor="start" >EC2 #2 · FleetDM   (Ubuntu 22.04 · t3.medium · Docker Compose · managed via SSM)</text><rect x="552" y="134" width="300" height="132" rx="8" ry="8" fill="#FFFFFF" stroke="#13A89E" stroke-width="1.6" fill-opacity="1"/><rect x="552" y="134" width="300" height="5" rx="2" fill="#13A89E"/><text x="702.0" y="156" font-size="12" fill="#0B2545" font-weight="bold" text-anchor="middle" >Fleet Server (Go)</text><text x="702.0" y="174" font-size="10" fill="#5A6B7B" font-weight="normal" text-anchor="middle" >serves UI + REST API +</text><text x="702.0" y="189" font-size="10" fill="#5A6B7B" font-weight="normal" text-anchor="middle" >osquery TLS endpoints</text><text x="702.0" y="204" font-size="10" fill="#5A6B7B" font-weight="normal" text-anchor="middle" >TLS :443 (own cert)</text><text x="702.0" y="219" font-size="10" fill="#5A6B7B" font-weight="normal" text-anchor="middle" >evaluates CP-01..08 policies</text><rect x="868" y="134" width="180" height="132" rx="8" ry="8" fill="#FFFFFF" stroke="#13A89E" stroke-width="1.6" fill-opacity="1"/><rect x="868" y="134" width="180" height="5" rx="2" fill="#13A89E"/><text x="958.0" y="156" font-size="12" fill="#0B2545" font-weight="bold" text-anchor="middle" >MySQL 8</text><text x="958.0" y="174" font-size="10" fill="#5A6B7B" font-weight="normal" text-anchor="middle" >hosts, policies,</text><text x="958.0" y="189" font-size="10" fill="#5A6B7B" font-weight="normal" text-anchor="middle" >query results</text><text x="958.0" y="204" font-size="10" fill="#5A6B7B" font-weight="normal" text-anchor="middle" >TCP :3306</text><rect x="1064" y="134" width="150" height="132" rx="8" ry="8" fill="#FFFFFF" stroke="#13A89E" stroke-width="1.6" fill-opacity="1"/><rect x="1064" y="134" width="150" height="5" rx="2" fill="#13A89E"/><text x="1139.0" y="156" font-size="12" fill="#0B2545" font-weight="bold" text-anchor="middle" >Redis 7</text><text x="1139.0" y="174" font-size="10" fill="#5A6B7B" font-weight="normal" text-anchor="middle" >live-query results,</text><text x="1139.0" y="189" font-size="10" fill="#5A6B7B" font-weight="normal" text-anchor="middle" >cache</text><text x="1139.0" y="204" font-size="10" fill="#5A6B7B" font-weight="normal" text-anchor="middle" >TCP :6379</text><rect x="1230" y="134" width="194" height="132" rx="8" ry="8" fill="#FFFFFF" stroke="#5A6B7B" stroke-width="1.6" fill-opacity="1"/><rect x="1230" y="134" width="194" height="5" rx="2" fill="#5A6B7B"/><text x="1327.0" y="156" font-size="12" fill="#0B2545" font-weight="bold" text-anchor="middle" >Host tooling</text><text x="1327.0" y="174" font-size="10" fill="#5A6B7B" font-weight="normal" text-anchor="middle" >certbot (TLS issue/renew)</text><text x="1327.0" y="189" font-size="10" fill="#5A6B7B" font-weight="normal" text-anchor="middle" >fleetctl (setup, apply</text><text x="1327.0" y="204" font-size="10" fill="#5A6B7B" font-weight="normal" text-anchor="middle" >policies, build MSI)</text><text x="1327.0" y="219" font-size="10" fill="#5A6B7B" font-weight="normal" text-anchor="middle" >Docker engine</text><line x1="852" y1="200" x2="868" y2="200" stroke="#5A6B7B" stroke-width="1.5" marker-end="url(#ah)"/><rect x="847.625" y="185.0" width="24.750000000000004" height="17" rx="3" ry="3" fill="#FFFFFF" stroke="none" stroke-width="0" fill-opacity="1"/><text x="860.0" y="196.0" font-size="9" fill="#5A6B7B" font-weight="bold" text-anchor="middle" >:3306</text><line x1="1048" y1="200" x2="1064" y2="200" stroke="#5A6B7B" stroke-width="1.5" marker-end="url(#ah)"/><rect x="1043.625" y="185.0" width="24.750000000000004" height="17" rx="3" ry="3" fill="#FFFFFF" stroke="none" stroke-width="0" fill-opacity="1"/><text x="1056.0" y="196.0" font-size="9" fill="#5A6B7B" font-weight="bold" text-anchor="middle" >:6379</text><rect x="538" y="300" width="900" height="350" rx="10" ry="10" fill="#FFFFFF" stroke="#1B6CA8" stroke-width="2" fill-opacity="1"/><text x="552" y="320" font-size="12.5" fill="#1B6CA8" font-weight="bold" text-anchor="start" >EC2 #1 · Tactical RMM   (Ubuntu 22.04 · t3.medium · systemd services · managed via SSM)</text><rect x="552" y="330" width="872" height="40" rx="8" ry="8" fill="#FFFFFF" stroke="#0B2545" stroke-width="1.6" fill-opacity="1"/><rect x="552" y="330" width="872" height="5" rx="2" fill="#0B2545"/><text x="988.0" y="352" font-size="12" fill="#0B2545" font-weight="bold" text-anchor="middle" >nginx — TLS termination + reverse proxy   (:443 public, :80 ACME)</text><rect x="552" y="382" width="272" height="72" rx="8" ry="8" fill="#FFFFFF" stroke="#1B6CA8" stroke-width="1.6" fill-opacity="1"/><rect x="552" y="382" width="272" height="5" rx="2" fill="#1B6CA8"/><text x="688.0" y="404" font-size="12" fill="#0B2545" font-weight="bold" text-anchor="middle" >Vue Frontend (SPA)</text><text x="688.0" y="422" font-size="10" fill="#5A6B7B" font-weight="normal" text-anchor="middle" >the web UI assets</text><rect x="836" y="382" width="290" height="72" rx="8" ry="8" fill="#FFFFFF" stroke="#1B6CA8" stroke-width="1.6" fill-opacity="1"/><rect x="836" y="382" width="290" height="5" rx="2" fill="#1B6CA8"/><text x="981.0" y="404" font-size="12" fill="#0B2545" font-weight="bold" text-anchor="middle" >Django REST API (uWSGI)</text><text x="981.0" y="422" font-size="10" fill="#5A6B7B" font-weight="normal" text-anchor="middle" >core app: assets, patch,</text><text x="981.0" y="437" font-size="10" fill="#5A6B7B" font-weight="normal" text-anchor="middle" >scripts, scheduling</text><rect x="1138" y="382" width="286" height="72" rx="8" ry="8" fill="#FFFFFF" stroke="#1B6CA8" stroke-width="1.6" fill-opacity="1"/><rect x="1138" y="382" width="286" height="5" rx="2" fill="#1B6CA8"/><text x="1281.0" y="404" font-size="12" fill="#0B2545" font-weight="bold" text-anchor="middle" >daphne (ASGI)</text><text x="1281.0" y="422" font-size="10" fill="#5A6B7B" font-weight="normal" text-anchor="middle" >WebSockets / Channels</text><text x="1281.0" y="437" font-size="10" fill="#5A6B7B" font-weight="normal" text-anchor="middle" >for live UI updates</text><rect x="552" y="466" width="272" height="72" rx="8" ry="8" fill="#FFFFFF" stroke="#6C4AB6" stroke-width="1.6" fill-opacity="1"/><rect x="552" y="466" width="272" height="5" rx="2" fill="#6C4AB6"/><text x="688.0" y="488" font-size="12" fill="#0B2545" font-weight="bold" text-anchor="middle" >Celery + Celery Beat</text><text x="688.0" y="506" font-size="10" fill="#5A6B7B" font-weight="normal" text-anchor="middle" >task queue +</text><text x="688.0" y="521" font-size="10" fill="#5A6B7B" font-weight="normal" text-anchor="middle" >scheduled jobs</text><rect x="836" y="466" width="290" height="72" rx="8" ry="8" fill="#FFFFFF" stroke="#6C4AB6" stroke-width="1.6" fill-opacity="1"/><rect x="836" y="466" width="290" height="5" rx="2" fill="#6C4AB6"/><text x="981.0" y="488" font-size="12" fill="#0B2545" font-weight="bold" text-anchor="middle" >NATS + nats-api</text><text x="981.0" y="506" font-size="10" fill="#5A6B7B" font-weight="normal" text-anchor="middle" >agent realtime bus</text><text x="981.0" y="521" font-size="10" fill="#5A6B7B" font-weight="normal" text-anchor="middle" >(commands/results)</text><rect x="1138" y="466" width="286" height="72" rx="8" ry="8" fill="#FFFFFF" stroke="#6C4AB6" stroke-width="1.6" fill-opacity="1"/><rect x="1138" y="466" width="286" height="5" rx="2" fill="#6C4AB6"/><text x="1281.0" y="488" font-size="12" fill="#0B2545" font-weight="bold" text-anchor="middle" >MeshCentral (Node.js)</text><text x="1281.0" y="506" font-size="10" fill="#5A6B7B" font-weight="normal" text-anchor="middle" >remote desktop/shell</text><text x="1281.0" y="521" font-size="10" fill="#5A6B7B" font-weight="normal" text-anchor="middle" >relay (mesh.)</text><rect x="552" y="550" width="420" height="72" rx="8" ry="8" fill="#FFFFFF" stroke="#1B6CA8" stroke-width="1.6" fill-opacity="1"/><rect x="552" y="550" width="420" height="5" rx="2" fill="#1B6CA8"/><text x="762.0" y="572" font-size="12" fill="#0B2545" font-weight="bold" text-anchor="middle" >PostgreSQL</text><text x="762.0" y="590" font-size="10" fill="#5A6B7B" font-weight="normal" text-anchor="middle" >TRMM inventory, jobs, history</text><text x="762.0" y="605" font-size="10" fill="#5A6B7B" font-weight="normal" text-anchor="middle" >TCP :5432</text><rect x="1004" y="550" width="420" height="72" rx="8" ry="8" fill="#FFFFFF" stroke="#1B6CA8" stroke-width="1.6" fill-opacity="1"/><rect x="1004" y="550" width="420" height="5" rx="2" fill="#1B6CA8"/><text x="1214.0" y="572" font-size="12" fill="#0B2545" font-weight="bold" text-anchor="middle" >Redis</text><text x="1214.0" y="590" font-size="10" fill="#5A6B7B" font-weight="normal" text-anchor="middle" >cache + Celery broker + NATS state</text><text x="1214.0" y="605" font-size="10" fill="#5A6B7B" font-weight="normal" text-anchor="middle" >TCP :6379</text><line x1="688" y1="454" x2="688" y2="466" stroke="#5A6B7B" stroke-width="1.3" marker-end="url(#ah)"/><line x1="981" y1="438" x2="981" y2="466" stroke="#5A6B7B" stroke-width="1.3" marker-end="url(#ah)"/><line x1="760" y1="538" x2="760" y2="550" stroke="#5A6B7B" stroke-width="1.3" marker-end="url(#ah)"/><rect x="747.625" y="529.0" width="24.750000000000004" height="17" rx="3" ry="3" fill="#FFFFFF" stroke="none" stroke-width="0" fill-opacity="1"/><text x="760.0" y="540.0" font-size="9" fill="#5A6B7B" font-weight="bold" text-anchor="middle" >:5432</text><line x1="981" y1="538" x2="1100" y2="550" stroke="#5A6B7B" stroke-width="1.3" marker-end="url(#ah)"/><rect x="1028.125" y="529.0" width="24.750000000000004" height="17" rx="3" ry="3" fill="#FFFFFF" stroke="none" stroke-width="0" fill-opacity="1"/><text x="1040.5" y="540.0" font-size="9" fill="#5A6B7B" font-weight="bold" text-anchor="middle" >:6379</text><line x1="700" y1="370" x2="700" y2="382" stroke="#5A6B7B" stroke-width="1.3" marker-end="url(#ah)"/><line x1="324" y1="300" x2="552" y2="200" stroke="#13A89E" stroke-width="2.6" marker-end="url(#ah)"/><rect x="286.75" y="256.0" width="302.5" height="18" rx="3" ry="3" fill="#FFFFFF" stroke="none" stroke-width="0" fill-opacity="1"/><text x="438.0" y="268.0" font-size="10" fill="#13A89E" font-weight="bold" text-anchor="middle" >HTTPS 443 → nbcfleet  (enroll · live queries · results)</text><line x1="324" y1="150" x2="552" y2="350" stroke="#1B6CA8" stroke-width="2.6" marker-end="url(#ah)"/><rect x="308.75" y="208.0" width="258.5" height="18" rx="3" ry="3" fill="#FFFFFF" stroke="none" stroke-width="0" fill-opacity="1"/><text x="438.0" y="220.0" font-size="10" fill="#1B6CA8" font-weight="bold" text-anchor="middle" >HTTPS 443 → api/rmm  (REST + NATS realtime/WSS)</text><line x1="324" y1="235" x2="552" y2="420" stroke="#6C4AB6" stroke-width="2.2" marker-end="url(#ah)"/><rect x="396.75" y="319.5" width="82.5" height="18" rx="3" ry="3" fill="#FFFFFF" stroke="none" stroke-width="0" fill-opacity="1"/><text x="438.0" y="331.5" font-size="10" fill="#6C4AB6" font-weight="bold" text-anchor="middle" >WSS 443 → mesh.</text><line x1="496" y1="250" x2="552" y2="160" stroke="#C8841F" stroke-width="1.8" marker-end="url(#ah)"/><rect x="496.775" y="188.0" width="54.45" height="17" rx="3" ry="3" fill="#FFFFFF" stroke="none" stroke-width="0" fill-opacity="1"/><text x="524.0" y="199.0" font-size="9" fill="#C8841F" font-weight="bold" text-anchor="middle" >HTTP-01 :80</text><line x1="496" y1="275" x2="552" y2="345" stroke="#C8841F" stroke-width="1.8" marker-end="url(#ah)"/><line x1="366" y1="150" x2="324" y2="130" stroke="#C8841F" stroke-width="1.4" marker-end="url(#ah)" stroke-dasharray="5 4"/><rect x="337.575" y="125.0" width="14.850000000000001" height="17" rx="3" ry="3" fill="#FFFFFF" stroke="none" stroke-width="0" fill-opacity="1"/><text x="345.0" y="136.0" font-size="9" fill="#C8841F" font-weight="bold" text-anchor="middle" >DNS</text><rect x="24" y="688" width="1432" height="116" rx="14" ry="14" fill="#F2F5F8" stroke="#2E8B57" stroke-width="2" fill-opacity="0.6"/><rect x="24" y="688" width="1432" height="26" rx="14" fill="#2E8B57"/><rect x="24" y="701" width="1432" height="13" fill="#2E8B57"/><text x="38" y="706" font-size="13" fill="#FFFFFF" font-weight="bold" text-anchor="start" >OPERATORS / ADMIN</text><rect x="60" y="724" width="420" height="62" rx="8" ry="8" fill="#FFFFFF" stroke="#2E8B57" stroke-width="1.6" fill-opacity="1"/><rect x="60" y="724" width="420" height="5" rx="2" fill="#2E8B57"/><text x="270.0" y="746" font-size="12" fill="#0B2545" font-weight="bold" text-anchor="middle" >Admin Browser</text><text x="270.0" y="764" font-size="10" fill="#5A6B7B" font-weight="normal" text-anchor="middle" >TRMM UI (rmm.) + Fleet UI (nbcfleet) — HTTPS :443</text><rect x="510" y="724" width="520" height="62" rx="8" ry="8" fill="#FFFFFF" stroke="#2E8B57" stroke-width="1.6" fill-opacity="1"/><rect x="510" y="724" width="520" height="5" rx="2" fill="#2E8B57"/><text x="770.0" y="746" font-size="12" fill="#0B2545" font-weight="bold" text-anchor="middle" >Admin Workstation (macOS)</text><text x="770.0" y="764" font-size="10" fill="#5A6B7B" font-weight="normal" text-anchor="middle" >Terraform + AWS CLI · SSM Session / Run Command (over :443)</text><rect x="1060" y="724" width="360" height="62" rx="8" ry="8" fill="#FFFFFF" stroke="#C0392B" stroke-width="1.6" fill-opacity="1"/><rect x="1060" y="724" width="360" height="5" rx="2" fill="#C0392B"/><text x="1240.0" y="746" font-size="12" fill="#0B2545" font-weight="bold" text-anchor="middle" >Why SSM, not SSH</text><text x="1240.0" y="764" font-size="10" fill="#5A6B7B" font-weight="normal" text-anchor="middle" >corp network blocks outbound :22 → manage boxes via SSM/443</text><line x1="270" y1="724" x2="820" y2="650" stroke="#2E8B57" stroke-width="2" marker-end="url(#ah)"/><rect x="501.0" y="691.0" width="88.0" height="18" rx="3" ry="3" fill="#FFFFFF" stroke="none" stroke-width="0" fill-opacity="1"/><text x="545.0" y="703.0" font-size="10" fill="#2E8B57" font-weight="bold" text-anchor="middle" >HTTPS :443 (UIs)</text><line x1="770" y1="724" x2="1100" y2="650" stroke="#2E8B57" stroke-width="2" marker-end="url(#ah)"/><rect x="888.25" y="701.0" width="93.50000000000001" height="18" rx="3" ry="3" fill="#FFFFFF" stroke="none" stroke-width="0" fill-opacity="1"/><text x="935.0" y="713.0" font-size="10" fill="#2E8B57" font-weight="bold" text-anchor="middle" >SSM :443 (manage)</text><text x="24" y="836" font-size="11" fill="#0B2545" font-weight="bold" text-anchor="start" >Legend:</text><rect x="90" y="825" width="14" height="14" rx="3" ry="3" fill="#1B6CA8" stroke="none" stroke-width="0" fill-opacity="1"/><text x="110" y="836" font-size="10.5" fill="#5A6B7B" font-weight="normal" text-anchor="start" >Agents/Web</text><rect x="204" y="825" width="14" height="14" rx="3" ry="3" fill="#13A89E" stroke="none" stroke-width="0" fill-opacity="1"/><text x="224" y="836" font-size="10.5" fill="#5A6B7B" font-weight="normal" text-anchor="start" >Compliance (Fleet)</text><rect x="374" y="825" width="14" height="14" rx="3" ry="3" fill="#6C4AB6" stroke="none" stroke-width="0" fill-opacity="1"/><text x="394" y="836" font-size="10.5" fill="#5A6B7B" font-weight="normal" text-anchor="start" >Queue/Realtime/Remote</text><rect x="565" y="825" width="14" height="14" rx="3" ry="3" fill="#C8841F" stroke="none" stroke-width="0" fill-opacity="1"/><text x="585" y="836" font-size="10.5" fill="#5A6B7B" font-weight="normal" text-anchor="start" >DNS/TLS</text><rect x="658" y="825" width="14" height="14" rx="3" ry="3" fill="#2E8B57" stroke="none" stroke-width="0" fill-opacity="1"/><text x="678" y="836" font-size="10.5" fill="#5A6B7B" font-weight="normal" text-anchor="start" >Admin</text><rect x="737" y="825" width="14" height="14" rx="3" ry="3" fill="#5A6B7B" stroke="none" stroke-width="0" fill-opacity="1"/><text x="757" y="836" font-size="10.5" fill="#5A6B7B" font-weight="normal" text-anchor="start" >OS / data</text><text x="24" y="858" font-size="10" fill="#5A6B7B" font-weight="normal" text-anchor="start" >Solid arrow = network flow (protocol/port labeled). Dashed = DNS resolution / local OS read. All endpoint↔cloud traffic is agent-initiated outbound 443.</text></g></svg>
